
<svg xmlns="http://www.w3.org/2000/svg" width="2500" height="476" viewBox="0 0 141.732 27"><path d="M139.86 27H4.807a2.589 2.589 0 0 1-1.55-.521v.014c-.21.267-.137.507-.137.507S3.1 26.48 2.647 26.48a2.59 2.59 0 0 1-1.642-.613A2.669 2.669 0 0 1 0 24.2V2.8A2.669 2.669 0 0 1 1.005.867 2.59 2.59 0 0 1 2.647.253c.453 0 .473.52.473.52s-.073.24.137.507v.013a2.585 2.585 0 0 1 1.55-.52H139.86c.49 0 .953.135 1.35.373a.667.667 0 0 1 .29.254c.191.26.232.413.232.413v23.42s-.41.153-.232.413a.67.67 0 0 1-.29.253 2.586 2.586 0 0 1-1.35.374"/><path d="M139.86.773H4.807c-.484 0-.878.392-.878.876v23.702c0 .484.394.876.878.876H139.86c.484 0 .877-.392.877-.876V1.65c0-.485-.393-.877-.877-.877" fill="#fff"/><path d="M14.252 12.826c0-2.695 2.177-4.873 4.873-4.873 2.696 0 4.873 2.178 4.873 4.873 0 2.695-2.177 4.873-4.873 4.873-2.696 0-4.873-2.178-4.873-4.873" fill="#f27712"/><path d="M36.7 16.25V9.795h2.416v.921h.036a2.89 2.89 0 0 1 2.595-1.1c2.705 0 3.316 1.926 3.316 2.762v3.87h-2.522v-3.515c0-.699-.668-1.186-1.336-1.186-.852 0-1.384.547-1.384 1.562v3.14H36.7zm9.313-3.227c0-2.034 1.393-3.409 3.556-3.409 1.085 0 3.267.502 3.267 3.623v.467h-4.373c.116.744.77 1.186 1.556 1.186.329 0 .901-.096 1.305-.554l1.467 1.268c-.677.678-1.664 1.026-2.772 1.026-2.045 0-3.006-1.574-3.006-3.607zm4.378-.586c-.037-.623-.546-1.042-1.09-1.042-.568 0-1.064.352-1.176 1.042h2.266zm2.53 3.813V9.795h2.416v.921h.036c.304-.491 1.053-1.1 2.125-1.1.806 0 1.506.344 1.836.875.615-.615 1.29-.875 2.177-.875.817 0 1.568.26 2.034.735.495.503.668 1.22.668 1.834v4.064h-2.512v-3.731c0-.491-.366-.97-.97-.97-.615 0-.959.479-.959.97v3.73h-2.52v-3.73c0-.491-.363-.97-.962-.97-.614 0-.951.479-.951.97v3.73h-2.422zm14.938-6.455H65.3v-2.47h2.557v2.47zm.17 6.455V9.795h2.522v6.455h-2.522zm6.692 0h-2.512V9.795h2.416v.805h.036c.376-.625.889-1.016 1.878-1.016 1.139 0 2.14.723 2.14 2.103v4.563h-2.522v-3.767c0-.553-.207-1.028-.901-1.028-.681 0-1.042.485-1.042 1.028v3.767h.507zm9.753-7.617c.48 0 .913.207 1.225.52.303.303.485.727.485 1.188 0 .485-.182.901-.485 1.204-.312.312-.745.52-1.225.52-.49 0-.913-.208-1.225-.52a1.695 1.695 0 0 1-.485-1.204c0-.461.182-.885.485-1.188.312-.313.735-.52 1.225-.52zm0 2.92a1.231 1.231 0 0 0 1.224-1.212c0-.346-.146-.654-.365-.874a1.24 1.24 0 0 0-.859-.35c-.316 0-.617.13-.848.35-.23.22-.376.528-.376.873 0 .32.145.63.376.85.23.231.532.362.848.362zm6.546-3.277h1.02v1.212H80.85v2.142c0 .422.146.628.594.628.158 0 .298-.12.404-.36.24.302.604.495 1.223.507.096 0 .193-.012.29-.024v1.138c-.219.06-.438.096-.666.096-1.493 0-1.881-.878-1.881-1.917V10.92h-.864V9.795h.29c.557 0 .805-.376.805-.817V8.26h1.334v1.535zm5.143 8c-.889 0-1.763-.254-2.47-.789l.634-1.138c.57.422 1.164.606 1.787.606.984 0 1.57-.569 1.57-1.54v-.513h-.035c-.316.465-.85.8-1.611.8-1.498 0-2.532-1.128-2.532-2.906 0-1.766 1.01-2.946 2.52-2.946.774 0 1.307.352 1.634.842h.035v-.66h2.404v5.37c0 2.25-1.728 2.874-3.936 2.874zm1.503-5.637c0-.8-.51-1.37-1.23-1.37-.706 0-1.178.568-1.178 1.37 0 .799.472 1.38 1.177 1.38.722 0 1.231-.581 1.231-1.38zM96.804 16.25V9.795h2.416v.921h.035c.304-.491 1.053-1.1 2.125-1.1.807 0 1.506.344 1.836.875.615-.615 1.29-.875 2.177-.875.818 0 1.57.26 2.035.735.495.503.668 1.22.668 1.834v4.064h-2.512v-3.731c0-.491-.367-.97-.97-.97-.615 0-.96.479-.96.97v3.73H99.13v-3.73c0-.491-.364-.97-.962-.97-.615 0-.951.479-.951.97v3.73h-.413zm16.983-3.57v-2.885h2.535v6.456h-2.428v-.865h-.036c-.341.65-1.06 1.058-1.944 1.058-1.6 0-2.77-1.208-2.77-3.409 0-2.31 1.217-3.42 2.758-3.42.931 0 1.61.42 1.957 1.058h.036v-.817h2.428v1.699h-2.536v1.126zm-1.85 0c0 .92.508 1.502 1.248 1.502.726 0 1.302-.63 1.302-1.502 0-.868-.576-1.489-1.302-1.489-.74 0-1.249.581-1.249 1.489zm4.352-.377c0-2.034 1.394-3.409 3.556-3.409 1.085 0 3.268.502 3.268 3.623v.467h-4.374c.117.744.77 1.186 1.556 1.186.329 0 .902-.096 1.305-.554l1.468 1.268c-.677.678-1.664 1.026-2.772 1.026-2.044 0-3.007-1.574-3.007-3.607zm4.377-.586c-.036-.623-.545-1.042-1.09-1.042-.567 0-1.062.352-1.176 1.042h2.266zm4.679 4.533V9.795h2.512v6.455h-2.512zm-1.213-9.501a1.518 1.518 0 0 1 .445-1.077 1.513 1.513 0 0 1 1.077-.445c.403 0 .785.158 1.077.445.286.292.444.674.444 1.077 0 .412-.158.794-.444 1.077a1.512 1.512 0 0 1-1.077.445c-.413 0-.795-.157-1.077-.445a1.518 1.518 0 0 1-.445-1.077zm9.554 9.501V9.795h2.416v.817h.036c.34-.639 1.022-1.058 1.952-1.058 1.54 0 2.757 1.11 2.757 3.42 0 2.2-1.169 3.41-2.77 3.41-.883 0-1.602-.41-1.942-1.06h-.036v3.142h-2.413v-3.142zm2.523-3.227c0 .87.576 1.49 1.302 1.49.74 0 1.248-.582 1.248-1.502 0-.908-.507-1.49-1.248-1.49-.726 0-1.302.621-1.302 1.489v.013z" fill="#231f20"/><path d="M48.223 8.222c0-1.59-2.251-3.255-6.093-3.255h-8.627v10.538h9.079c3.387 0 5.855-1.687 5.855-3.41 0-.967-.628-1.897-1.754-2.535.94-.6 1.54-1.346 1.54-1.338zm-12.042-.886h5.575c1.454 0 2.656.447 2.656 1.26 0 .897-1.046 1.212-2.291 1.212h-5.94V7.336zm6.359 6.112H36.18v-2.425h6.206c1.455 0 2.498.41 2.498 1.176 0 .866-.91 1.249-2.344 1.249z" fill="#f27712"/><path d="M123.962 4.967h17.77V22.67h-17.77z" fill="#0097d0"/><path d="M124.952 13.819c0-3.627 1.693-6.861 4.32-8.852a10.766 10.766 0 0 0-5.31-1.394c-6.01 0-10.882 4.935-10.882 11.022s4.872 11.022 10.883 11.022c1.946 0 3.769-.517 5.345-1.423a10.91 10.91 0 0 1-4.356-10.375z" fill="#0097d0"/></svg>
