
<svg viewBox="0 0 256 199" xmlns="http://www.w3.org/2000/svg" preserveAspectRatio="xMidYMid"><path d="M46.54 198.011V184.84c0-5.05-3.074-8.342-8.343-8.342-2.666 0-5.468.817-7.471 3.483-1.494-2.258-3.687-3.483-6.899-3.483-2.258 0-4.45.613-6.217 2.666v-2.258h-4.586v21.105h4.65V186c0-3.687 1.981-5.468 5.051-5.468 2.97 0 4.45 1.94 4.45 5.467v12.01h4.65V186c0-3.687 2.084-5.468 5.05-5.468 3.074 0 4.45 1.94 4.45 5.467v12.01h5.215Zm69.152-21.105h-7.53v-6.28h-4.652v6.28h-4.314v4.177h4.313v9.682c0 4.925 1.909 7.84 7.377 7.84a10.935 10.935 0 0 0 5.785-1.614l-1.34-3.954c-1.34.816-2.87 1.144-4.04 1.144-2.258 0-3.073-1.39-3.073-3.483v-9.615h7.53v-4.177h-.057Zm39.16-.407c-2.666 0-4.381 1.24-5.468 2.666v-2.259h-4.586v21.105h4.586v-11.85c0-3.482 1.49-5.414 4.245-5.414.886 0 1.84.147 2.727.407l1.39-4.313a10.835 10.835 0 0 0-2.894-.341Zm-59.19 2.734c-2.258-1.781-5.342-2.734-8.733-2.734-5.414 0-8.896 2.598-8.896 6.852 0 3.5 2.598 5.65 7.376 6.307l2.19.272c2.55.341 3.755 1.026 3.755 2.19 0 1.614-1.697 2.53-4.857 2.53-3.21 0-5.537-1.026-7.104-2.394l-2.19 3.347c2.53 1.845 5.718 2.802 9.206 2.802 6.126 0 9.683-2.87 9.683-6.944 0-3.755-2.802-5.732-7.444-6.39l-2.19-.272c-2.03-.272-3.686-.68-3.686-2.03 0-1.508 1.45-2.394 3.982-2.394 2.666 0 5.241.98 6.535 1.78l2.123-3.422Zm122.179-2.734c-2.666 0-4.381 1.24-5.468 2.666v-2.259h-4.586v21.105h4.586v-11.85c0-3.482 1.49-5.414 4.245-5.414.886 0 1.84.147 2.727.407l1.39-4.313a10.835 10.835 0 0 0-2.894-.341Zm-59.23 10.96c0 6.126 4.246 10.553 10.757 10.553 3.008 0 5.05-.68 7.24-2.394l-2.19-3.687c-1.647 1.193-3.347 1.84-5.173 1.84-3.415 0-5.945-2.53-5.945-6.312 0-3.822 2.53-6.307 5.945-6.352 1.826 0 3.526.646 5.173 1.84l2.19-3.687c-2.19-1.713-4.232-2.394-7.24-2.394-6.511 0-10.757 4.427-10.757 10.593Zm41.08 0v-10.553h-4.586v2.258c-1.45-1.78-3.618-2.666-6.512-2.666-5.785 0-10.372 4.517-10.372 10.96 0 6.444 4.587 10.96 10.372 10.96 2.95 0 5.062-.885 6.512-2.665v2.258h4.587V187.42Zm-16.703 0c0-3.687 2.394-6.511 6.262-6.511 3.687 0 6.172 2.734 6.172 6.511 0 3.778-2.485 6.512-6.172 6.512-3.868-.051-6.262-2.915-6.262-6.512Zm-54.2 0v-19.128h-4.586v10.833c-1.45-1.78-3.617-2.666-6.512-2.666-5.784 0-10.371 4.517-10.371 10.96 0 6.444 4.587 10.96 10.371 10.96 2.95 0 5.062-.885 6.512-2.665v2.258h4.586V187.42Zm-16.747 0c0-3.687 2.394-6.511 6.262-6.511 3.687 0 6.172 2.734 6.172 6.511 0 3.778-2.485 6.512-6.172 6.512-3.868-.051-6.262-2.915-6.262-6.512Z" fill="#000"/><path d="M98.156 21.052H157.9v130.108H98.156z" fill="#FF5F00"/><path d="M105.033 86.106c0-26.35 12.35-49.816 31.518-65.054C122.72 8.92 104.307 1.312 83.656 1.312 37.499 1.312 0 38.872 0 85.058c0 46.186 37.5 83.747 83.656 83.747 20.651 0 39.064-7.608 53.049-19.74-19.168-15.184-31.672-38.704-31.672-62.96Z" fill="#EB001B"/><path d="M256 85.058c0 46.186-37.5 83.747-83.656 83.747-20.65 0-39.064-7.608-53.049-19.74 19.323-15.184 31.518-38.704 31.518-65.054 0-26.35-12.35-49.816-31.518-65.054C133.28 8.92 151.694 1.312 172.344 1.312 218.5 1.312 256 38.915 256 85.058Z" fill="#F79E1B"/></svg>
