
<svg xmlns="http://www.w3.org/2000/svg" viewBox="0 0 1000 324.38" width="2500" height="811"><path d="M433.32 318.49h-82.1L404.7 5.89h82.11z" fill="#00579f"/><path d="M725.68 11.88c-16.23-6.11-41.79-12.74-73.5-12.74-80.93 0-137.98 40.76-138.46 99.05-.73 43.03 40.76 67.06 71.77 81.41 31.71 14.71 42.52 24.18 42.52 37.16 0 19.93-25.63 29.16-49.08 29.16-32.44 0-49.81-4.61-76.38-15.8l-10.49-4.85-11.46 66.59c19.2 8.36 54.67 15.8 91.43 16.16 86.28 0 142.35-40.28 143.08-102.76.37-34.18-21.53-60.26-68.54-81.78-28.68-13.86-46.16-23.32-46.16-37.53 0-12.74 15.07-26.1 47.61-26.1 27.07-.73 46.88 5.61 61.83 11.83l7.48 3.37 11.35-65.17" fill="#00579f"/><path d="M834.57 207.3c6.85-18.26 33.3-89.15 33.3-89.15-.24.37 6.85-18.5 11.22-30.25l5.61 26.35s15.93 73.23 19.44 93.04H834.57zm123.63-201.4h-63.4c-19.69 0-34.4 5.36-43.03 25.05L735.28 318.25h86.28s13.74-36.09 16.77-43.88c9.27 0 91.43.24 103.08.24 2.36 10.49 9.76 43.64 9.76 43.64h76.13L958.2 5.9z" fill="#00579f"/><path d="M284.25 5.89L202.5 217.54l-8.72-43.15c-15.08-48.62-62.2-101.27-114.72-127.62l74.19 271.36 87.73-.12L362 5.89h-77.75z" fill="#00579f"/><path d="M131.65 5.89H.48l-1.22 5.6c101.64 24.54 169 84.07 196.7 155.52L168.44 31.02c-4.61-18.5-18.37-23.8-36.79-25.13z" fill="#faa61a"/></svg>
